<svg xmlns="http://www.w3.org/2000/svg" xmlns:xlink="http://www.w3.org/1999/xlink" style="display:none"><defs><style>.a{fill:#60379f;}.b{fill:#f47894;}</style></defs><symbol id="svg-.-icons">
  <symbol id="svg-search" viewBox="0 0 512 512"><path d="M497.913,497.913c-18.782,18.782-49.225,18.782-68.008,0l-84.862-84.863c-34.889,22.382-76.13,35.717-120.659,35.717  C100.469,448.767,0,348.312,0,224.383S100.469,0,224.384,0c123.931,0,224.384,100.452,224.384,224.383  c0,44.514-13.352,85.771-35.718,120.676l84.863,84.863C516.695,448.704,516.695,479.131,497.913,497.913z M224.384,64.109  c-88.511,0-160.274,71.747-160.274,160.273c0,88.526,71.764,160.274,160.274,160.274c88.525,0,160.273-71.748,160.273-160.274  C384.657,135.856,312.909,64.109,224.384,64.109z"/></symbol>
  <symbol id="svg-twitter" viewBox="0 0 310 310"><path d="M303,57.4c-4.9,2.2-9.9,4-15,5.5c6.1-6.8,10.7-14.9,13.5-23.7c0.6-2,0-4.1-1.6-5.4 c-1.6-1.3-3.9-1.4-5.7-0.4c-10.9,6.4-22.6,11.1-34.9,13.8c-12.4-12.1-29.2-19-46.6-19c-36.7,0-66.5,29.9-66.5,66.5 c0,2.9,0.2,5.8,0.5,8.6c-45.5-4-87.9-26.4-116.9-62c-1-1.3-2.6-2-4.3-1.8c-1.6,0.1-3.1,1-3.9,2.5c-5.9,10.1-9,21.7-9,33.5 c0,16,5.7,31.2,15.8,43.1c-3.1-1.1-6.1-2.4-8.9-4c-1.5-0.9-3.4-0.8-4.9,0c-1.5,0.9-2.5,2.5-2.5,4.2c0,0.3,0,0.6,0,0.9 c0,23.9,12.9,45.5,32.6,57.2c-1.7-0.2-3.4-0.4-5.1-0.7c-1.7-0.3-3.5,0.3-4.7,1.6c-1.2,1.3-1.6,3.2-1,4.8 c7.3,22.8,26.1,39.5,48.7,44.6c-18.8,11.8-40.3,18-62.9,18c-4.7,0-9.5-0.3-14.1-0.8c-2.3-0.3-4.5,1.1-5.3,3.3c-0.8,2.2,0,4.6,2,5.9 c29,18.6,62.6,28.4,97,28.4c67.8,0,110.1-31.9,133.8-58.8c29.5-33.4,46.4-77.7,46.4-121.4c0-1.8,0-3.7-0.1-5.5 c11.6-8.8,21.6-19.4,29.8-31.5c1.2-1.8,1.1-4.3-0.3-6C307.4,57,305,56.5,303,57.4z"/></symbol>
  <symbol id="svg-facebook" viewBox="0 0 310 310"><path id="XMLID_835_" d="M81.7,165.1h34V305c0,2.8,2.2,5,5,5h57.6c2.8,0,5-2.2,5-5V165.8h39.1c2.5,0,4.7-1.9,5-4.4l5.9-51.5 c0.2-1.4-0.3-2.8-1.2-3.9c-0.9-1.1-2.3-1.7-3.7-1.7h-45V72c0-9.7,5.2-14.7,15.6-14.7c1.5,0,29.4,0,29.4,0c2.8,0,5-2.2,5-5V5 c0-2.8-2.2-5-5-5c0,0-41.5,0-42.4,0c-7,0-26.6-2.8-50.8,19.2c-21.4,19.7-15.8,40.8-17.7,47.4v37.8H81.7c-2.8,0-5,2.2-5,5v50.8 C76.7,162.9,78.9,165.1,81.7,165.1z"/></symbol>
  <symbol id="svg-pencil" viewBox="0 0 24 24"><path d="M7.127 22.562l-7.127 1.438 1.438-7.128 5.689 5.69zm1.414-1.414l11.228-11.225-5.69-5.692-11.227 11.227 5.689 5.69zm9.768-21.148l-2.816 2.817 5.691 5.691 2.816-2.819-5.691-5.689z"/></symbol>
  <symbol id="svg-hamburger" viewBox="0 0 32 32"><path d="M4,10h24c1.104,0,2-0.896,2-2s-0.896-2-2-2H4C2.896,6,2,6.896,2,8S2.896,10,4,10z M28,14H4c-1.104,0-2,0.896-2,2  s0.896,2,2,2h24c1.104,0,2-0.896,2-2S29.104,14,28,14z M28,22H4c-1.104,0-2,0.896-2,2s0.896,2,2,2h24c1.104,0,2-0.896,2-2  S29.104,22,28,22z"/></symbol>
  <symbol id="svg-laptops" viewBox="0 0 64 64"><path d="M7.1,12.8c-0.4,0.2-0.9,0.6-1.2,0.9c-1.1,1.2-1.1,0.4-1.1,16.2v14.3l0.4,0.9c0.5,0.9,1.5,1.8,2.4,2C9,47.3,8.9,47.3,8.9,48 v0.7l-4.1,0.1c-4,0.1-4.1,0.1-4.5,0.4c-0.5,0.5-0.5,1.5,0,1.9c0.4,0.3,1.4,0.3,31.6,0.3s31.2,0,31.6-0.3c0.5-0.4,0.5-1.4,0-1.9 c-0.4-0.4-0.5-0.4-4.5-0.4l-4.1-0.1V48c0-0.7,0.2-0.8,0.9-0.8c0.5,0,1.6-0.6,2.1-1.1c0.2-0.3,0.6-0.8,0.7-1.1 c0.3-0.6,0.3-1.4,0.3-15c0-13.6,0-14.4-0.3-15c-0.2-0.4-0.6-0.9-0.9-1.2c-1.2-1.1,0.7-1.1-25.9-1.1C8.8,12.5,7.8,12.5,7.1,12.8z  M55.9,15.6c0.3,0.3,0.3,0.6,0.3,14.3v14l-0.4,0.3c-0.4,0.3-1,0.3-24,0.3s-23.6,0-24-0.3l-0.4-0.3v-14c0-12.4,0-14,0.3-14.3l0.3-0.4 h23.7C55.3,15.2,55.5,15.2,55.9,15.6z M52.2,48v0.7H31.9H11.6V48v-0.7h20.3h20.3V48z"/></symbol>
  <symbol id="svg-mobiles" viewBox="0 0 64 64"><path d="M44.3,0.2H20.9c-1.9,0-3.4,1.5-3.4,3.4v57.1c0,1.9,1.5,3.4,3.4,3.4h23.3c1.9,0,3.4-1.5,3.4-3.4V3.6 C47.7,1.7,46.2,0.2,44.3,0.2z M32.6,1.5c0.4,0,0.7,0.3,0.7,0.7S33,2.8,32.6,2.8c-0.4,0-0.7-0.3-0.7-0.7S32.2,1.5,32.6,1.5z  M46.4,58.9c0,1.5-1.3,2.8-2.8,2.8h-22c-1.5,0-2.8-1.3-2.8-2.8V4.4c0-1.5,1.3-2.8,2.8-2.8h6.9c1.7,0,2.2,0.8,2.8,1.5 c0.6,0.6,1.3,0.6,1.3,0.6h0c0,0,0.8,0,1.3-0.6c0.6-0.6,1.1-1.5,2.8-1.5h6.8c1.5,0,2.8,1.3,2.8,2.8V58.9z"/></symbol>
  <symbol id="svg-monitors" viewBox="0 0 64 64"><path d="M63,6.6h-3.3H4.3H1c-0.5,0-1,0.5-1,1v3.3v31.4v3.3c0,0.5,0.5,1,1,1h24.5c-0.1,0.2-3.9,8.6-14,8.6v2.1h7.5h18.3h14v-2.1 c-10.4,0-12.8-8.3-12.9-8.6H63c0.5,0,1-0.5,1-1v-3.3V10.9V7.6C64,7.1,63.6,6.6,63,6.6z M62.2,43.8H1.8V9h60.4V43.8z"/></symbol>
  <symbol id="svg-cpus" viewBox="0 0 64 64"><path d="M62.8,22.5c0.7,0,1.2-0.5,1.2-1.2c0-0.7-0.5-1.2-1.2-1.2h-3.6v-4.7h3.6c0.7,0,1.2-0.5,1.2-1.2c0-0.7-0.5-1.2-1.2-1.2h-3.6 v-2.4c0-3.3-2.7-5.9-5.9-5.9h-2.4V1.2c0-0.7-0.5-1.2-1.2-1.2c-0.7,0-1.2,0.5-1.2,1.2v3.6h-4.7V1.2c0-0.7-0.5-1.2-1.2-1.2 c-0.7,0-1.2,0.5-1.2,1.2v3.6h-4.7V1.2c0-0.7-0.5-1.2-1.2-1.2c-0.7,0-1.2,0.5-1.2,1.2v3.6h-4.7V1.2c0-0.7-0.5-1.2-1.2-1.2 c-0.7,0-1.2,0.5-1.2,1.2v3.6h-4.7V1.2C22.5,0.5,22,0,21.3,0s-1.2,0.5-1.2,1.2v3.6h-4.7V1.2c0-0.7-0.5-1.2-1.2-1.2 c-0.7,0-1.2,0.5-1.2,1.2v3.6h-2.4c-3.3,0-5.9,2.7-5.9,5.9v2.4H1.2c-0.7,0-1.2,0.5-1.2,1.2c0,0.7,0.5,1.2,1.2,1.2h3.6v4.7H1.2 c-0.7,0-1.2,0.5-1.2,1.2c0,0.7,0.5,1.2,1.2,1.2h3.6v4.7H1.2c-0.7,0-1.2,0.5-1.2,1.2s0.5,1.2,1.2,1.2h3.6v4.7H1.2 c-0.7,0-1.2,0.5-1.2,1.2c0,0.7,0.5,1.2,1.2,1.2h3.6v4.7H1.2C0.5,41.5,0,42,0,42.7c0,0.7,0.5,1.2,1.2,1.2h3.6v4.7H1.2 c-0.7,0-1.2,0.5-1.2,1.2c0,0.7,0.5,1.2,1.2,1.2h3.6v2.4c0,3.3,2.7,5.9,5.9,5.9h2.4v3.6c0,0.7,0.5,1.2,1.2,1.2c0.7,0,1.2-0.5,1.2-1.2 v-3.6h4.7v3.6c0,0.7,0.5,1.2,1.2,1.2s1.2-0.5,1.2-1.2v-3.6h4.7v3.6c0,0.7,0.5,1.2,1.2,1.2c0.7,0,1.2-0.5,1.2-1.2v-3.6h4.7v3.6 c0,0.7,0.5,1.2,1.2,1.2c0.7,0,1.2-0.5,1.2-1.2v-3.6h4.7v3.6c0,0.7,0.5,1.2,1.2,1.2c0.7,0,1.2-0.5,1.2-1.2v-3.6h4.7v3.6 c0,0.7,0.5,1.2,1.2,1.2c0.7,0,1.2-0.5,1.2-1.2v-3.6h2.4c3.3,0,5.9-2.7,5.9-5.9v-2.4h3.6c0.7,0,1.2-0.5,1.2-1.2 c0-0.7-0.5-1.2-1.2-1.2h-3.6v-4.7h3.6c0.7,0,1.2-0.5,1.2-1.2c0-0.7-0.5-1.2-1.2-1.2h-3.6v-4.7h3.6c0.7,0,1.2-0.5,1.2-1.2 c0-0.7-0.5-1.2-1.2-1.2h-3.6v-4.7h3.6c0.7,0,1.2-0.5,1.2-1.2s-0.5-1.2-1.2-1.2h-3.6v-4.7H62.8z M56.9,53.3c0,2-1.6,3.6-3.6,3.6H10.7 c-2,0-3.6-1.6-3.6-3.6V10.7c0-2,1.6-3.6,3.6-3.6h42.7c2,0,3.6,1.6,3.6,3.6L56.9,53.3L56.9,53.3z M50.9,10.7H13.1 c-1.3,0-2.4,1.1-2.4,2.4v37.9c0,1.3,1.1,2.4,2.4,2.4h37.9c1.3,0,2.4-1.1,2.4-2.4V13.1C53.3,11.8,52.2,10.7,50.9,10.7z M13.1,50.9 V13.1h37.9l0,37.9L13.1,50.9L13.1,50.9z"/></symbol>
  <symbol id="svg-tablets" viewBox="0 0 64 64"><path d="M53.7,0H10.3C8.2,0,6.5,1.7,6.5,3.8v56.4c0,2.1,1.7,3.8,3.8,3.8h43.5c2.1,0,3.8-1.7,3.8-3.8V3.8C57.5,1.7,55.8,0,53.7,0z M56.2,60.8c0,0.9-0.8,1.7-1.7,1.7H9.5c-0.9,0-1.7-0.7-1.7-1.7V3.2c0-0.9,0.8-1.7,1.7-1.7h45.1c0.9,0,1.7,0.7,1.7,1.7V60.8z M53.2,6.9H10.8c-0.4,0-0.7,0.3-0.7,0.7v48.7c0,0.4,0.3,0.7,0.7,0.7h42.4c0.4,0,0.7-0.3,0.7-0.7V7.6C53.9,7.2,53.6,6.9,53.2,6.9 L53.2,6.9z M52.5,55.7H11.5V8.3h40.9V55.7z M32,58.6c-0.3,0-0.6,0.1-0.8,0.3c-0.2,0.2-0.3,0.5-0.3,0.8s0.1,0.6,0.3,0.8 c0.2,0.2,0.5,0.3,0.8,0.3c0.3,0,0.6-0.1,0.8-0.3c0.2-0.2,0.3-0.5,0.3-0.8s-0.1-0.6-0.3-0.8C32.6,58.7,32.3,58.6,32,58.6z M32,5.4 c0.2,0,0.4-0.1,0.5-0.2c0.1-0.1,0.2-0.3,0.2-0.5c0-0.2-0.1-0.4-0.2-0.5C32.4,4,32.2,3.9,32,3.9c-0.2,0-0.4,0.1-0.5,0.2 s-0.2,0.3-0.2,0.5s0.1,0.4,0.2,0.5C31.6,5.3,31.8,5.4,32,5.4z"/></symbol>
</symbol><symbol id="svg-.-logo-color" viewBox="0 0 285.73 32.02"><title>Logo</title><path class="a" d="M31.83,13.75a11.78,11.78,0,0,1-.49,3.53A9.93,9.93,0,0,1,30,20a9.32,9.32,0,0,1-1.92,2,11.17,11.17,0,0,1-2.28,1.38,11.31,11.31,0,0,1-2.4.78,11.52,11.52,0,0,1-2.28.24H8.09V18.68H21.15a6.71,6.71,0,0,0,2-.46,4.8,4.8,0,0,0,1.54-1,4.3,4.3,0,0,0,1-1.5,5.26,5.26,0,0,0,.36-2v-3a7.62,7.62,0,0,0-.47-2,4.74,4.74,0,0,0-1-1.55,4.34,4.34,0,0,0-1.48-1,5.09,5.09,0,0,0-2-.37h-13a2.38,2.38,0,0,0-1.75.6,2.35,2.35,0,0,0-.6,1.73V32H0V8.11A8.08,8.08,0,0,1,.81,4.33a7.63,7.63,0,0,1,2-2.51A8,8,0,0,1,5.46.43,9,9,0,0,1,8.09,0H21.15a11.45,11.45,0,0,1,3.51.5A10.17,10.17,0,0,1,27.4,1.83a9.11,9.11,0,0,1,2,1.92A11.91,11.91,0,0,1,30.8,6a11,11,0,0,1,.79,2.4,11.54,11.54,0,0,1,.24,2.28v3Z"/><path class="a" d="M68.59,10.71a14.82,14.82,0,0,1-.49,4,9.93,9.93,0,0,1-1.32,2.74,9.31,9.31,0,0,1-1.92,2,11.57,11.57,0,0,1-2.28,1.39,11,11,0,0,1-2.4.79,11.52,11.52,0,0,1-2.28.24L69.72,32H60.79L49,21.86H44.85V16.08H57.91a6.68,6.68,0,0,0,2-.46,4.94,4.94,0,0,0,1.55-1,4.23,4.23,0,0,0,1-1.5,7.81,7.81,0,0,0,.36-2.43V7.07a1.79,1.79,0,0,0-.12-0.74,0.9,0.9,0,0,0-.31-0.38A0.91,0.91,0,0,0,62,5.8l-0.39,0H42.54V32H36.75V2.91A2.91,2.91,0,0,1,37,1.78,3,3,0,0,1,37.6.85,2.74,2.74,0,0,1,38.52.22,3,3,0,0,1,39.67,0H61.6a7,7,0,0,1,3.27.7A6.65,6.65,0,0,1,67,2.46a6.82,6.82,0,0,1,1.2,2.28A8,8,0,0,1,68.59,7v3.69Z"/><rect class="b" x="211.6" y="0.05" width="5.78" height="31.95"/><polygon class="a" points="81.32 31.98 75.54 31.98 75.6 0.11 81.38 0.11 81.32 31.98"/><path class="a" d="M115.49,32H94.65a8.6,8.6,0,0,1-1.72-.19,8.84,8.84,0,0,1-1.82-.59,8.43,8.43,0,0,1-1.72-1,7,7,0,0,1-1.45-1.53,7.6,7.6,0,0,1-1-2.09,8.82,8.82,0,0,1-.38-2.68V8.11a8.6,8.6,0,0,1,.19-1.72,8.85,8.85,0,0,1,.59-1.82,8.17,8.17,0,0,1,1-1.72,7.23,7.23,0,0,1,1.54-1.45A7.64,7.64,0,0,1,92,.38,8.71,8.71,0,0,1,94.65,0h20.84V5.78H94.65a2.35,2.35,0,0,0-1.73.6,2.41,2.41,0,0,0-.6,1.78V23.89a2.12,2.12,0,0,0,2.33,2.33h20.84V32Z"/><path class="a" d="M128.66,27h21.16v5H128.66a8,8,0,0,1-1.72-.05,6.75,6.75,0,0,1-3.53-1.49A6.94,6.94,0,0,1,122,28.93a7.44,7.44,0,0,1-.9-2.09,9,9,0,0,1-.25-2.67v-7c1,0.59.83,1.12,1.41,1.57A8.57,8.57,0,0,0,124.06,20a10.25,10.25,0,0,1,1.76.67v3.5A3,3,0,0,0,128.66,27Z"/><path class="a" d="M149.82,0H128.66A8.59,8.59,0,0,0,126,.59a7.84,7.84,0,0,0-2.08,1.12,7.46,7.46,0,0,0-1.54,1.51,8.34,8.34,0,0,0-1,1.75,8.53,8.53,0,0,0-.46,1.83,8.16,8.16,0,0,0-.06,1.73v2.23a9,9,0,0,0,.25,2.68,7.5,7.5,0,0,0,.95,2.09,6.87,6.87,0,0,0,1.42,1.53,8.32,8.32,0,0,0,1.71,1,9,9,0,0,0,1.81.66,8.9,8.9,0,0,0,1.71.26h21.16V13H128.66a3,3,0,0,1-2-.57,2.4,2.4,0,0,1-.87-1.68V8.58a2.79,2.79,0,0,1,.86-1.88,3.07,3.07,0,0,1,2-.7h21.16V0Z"/><path class="b" d="M264.64,26h21.09v6H264.64a8.29,8.29,0,0,1-1.71-.13,7.07,7.07,0,0,1-3.52-1.55A7,7,0,0,1,258,28.78a7.45,7.45,0,0,1-.9-2.08,9,9,0,0,1-.24-2.67V17c1,0.59.83,1.12,1.4,1.56a8.55,8.55,0,0,0,1.83,1.28,10.22,10.22,0,0,1,1.75.67V24a2.13,2.13,0,0,0,.86,1.55A3,3,0,0,0,264.64,26Z"/><path class="b" d="M285.73,0.1H264.64a8.59,8.59,0,0,0-2.66.5,7.73,7.73,0,0,0-2.07,1.07,7.35,7.35,0,0,0-1.54,1.48,8.25,8.25,0,0,0-1,1.73,8.46,8.46,0,0,0-.45,1.82,8.08,8.08,0,0,0-.06,1.72v2.22a9,9,0,0,0,.24,2.67,7.48,7.48,0,0,0,.94,2.08,6.85,6.85,0,0,0,1.42,1.53,8.29,8.29,0,0,0,1.7,1A9.66,9.66,0,0,0,264.64,19h21.09v-6H264.64a3,3,0,0,1-2-.65,2.59,2.59,0,0,1-.86-1.76V8.48a2.58,2.58,0,0,1,.85-1.79,3,3,0,0,1,2-.61h21.09v-6Z"/><path class="b" d="M252.29,22.58a10.92,10.92,0,0,1-.4,3.09,9.55,9.55,0,0,1-1.07,2.42,7.48,7.48,0,0,1-1.56,1.79,9.44,9.44,0,0,1-1.85,1.21,8.81,8.81,0,0,1-1.94.69,8.43,8.43,0,0,1-1.86.22H222.79V26.2h20.82a3,3,0,0,0,2.42-1,3.85,3.85,0,0,0,.86-2.63,4.54,4.54,0,0,0-.23-1.47A3.46,3.46,0,0,0,246,20a2.89,2.89,0,0,0-1-.76,3.36,3.36,0,0,0-1.36-.27H231.2a9,9,0,0,1-2.82-.5,8.29,8.29,0,0,1-2.81-1.62,8.75,8.75,0,0,1-2.16-2.92,10.22,10.22,0,0,1-.86-4.42,10.14,10.14,0,0,1,.86-4.41,8.9,8.9,0,0,1,2.16-2.92A8.21,8.21,0,0,1,228.38.5,9,9,0,0,1,231.2,0h18.37V5.8H231.2a3,3,0,0,0-2.4,1,3.94,3.94,0,0,0-.86,2.66,3.84,3.84,0,0,0,.86,2.64,3,3,0,0,0,2.4,1h12.46a9,9,0,0,1,3.79,1,9.31,9.31,0,0,1,1.84,1.24,8.18,8.18,0,0,1,1.55,1.8,9.13,9.13,0,0,1,1.07,2.41A11.08,11.08,0,0,1,252.29,22.58Z"/><path class="b" d="M179.06,31.07a8.05,8.05,0,0,1-3.79.93H163.44a8,8,0,0,1-6.34-3.05,7.89,7.89,0,0,1-1.43-2.65,9.69,9.69,0,0,1-.51-2.63V0h6V23.62a2.4,2.4,0,0,0,.58,1.77,2.29,2.29,0,0,0,1.71.61h11.83a3.1,3.1,0,0,0,2-.61,2.57,2.57,0,0,0,.88-1.77V0h5V23.67a8.89,8.89,0,0,1-.31,2.62,7.67,7.67,0,0,1-1.33,2.66A7.83,7.83,0,0,1,179.06,31.07Z"/><path class="b" d="M200.16,0V23.62a2.6,2.6,0,0,1-.91,1.77,3.2,3.2,0,0,1-2,.61h-11.3a6.79,6.79,0,0,0-.28,1.09,11,11,0,0,1-1.88,3.69,2.41,2.41,0,0,0-1,1.22H197.2a8.05,8.05,0,0,0,3.79-.93A7.94,7.94,0,0,0,203.5,29a7.65,7.65,0,0,0,1.31-2.66,9.2,9.2,0,0,0,.35-2.65V0h-5Z"/></symbol><symbol id="svg-.-logo" viewBox="0 0 150 78"><title>logo-color</title><path d="M0,40.38V37.49H150v2.89H0Z" transform="translate(0)" style="fill:#f47894"/><path d="M32,13.75a11.78,11.78,0,0,1-.49,3.53A9.93,9.93,0,0,1,30.2,20a9.32,9.32,0,0,1-1.92,2A11.17,11.17,0,0,1,26,23.43a11.31,11.31,0,0,1-2.4.78,11.52,11.52,0,0,1-2.28.24H8.26V18.68H21.33a6.71,6.71,0,0,0,2-.46,4.8,4.8,0,0,0,1.54-1,4.3,4.3,0,0,0,1-1.5,5.26,5.26,0,0,0,.36-2v-3a7.62,7.62,0,0,0-.47-2,4.74,4.74,0,0,0-1-1.55,4.34,4.34,0,0,0-1.48-1,5.09,5.09,0,0,0-2-.37h-13a2.38,2.38,0,0,0-1.75.6A2.35,2.35,0,0,0,6,8.11V32.27H0.18V8.11A8.08,8.08,0,0,1,1,4.33,7.63,7.63,0,0,1,3,1.82,8,8,0,0,1,5.64.43,9,9,0,0,1,8.26,0H21.33a11.45,11.45,0,0,1,3.51.5,10.17,10.17,0,0,1,2.74,1.33,9.11,9.11,0,0,1,2,1.92A11.91,11.91,0,0,1,31,6a11,11,0,0,1,.79,2.4A11.54,11.54,0,0,1,32,10.71v3Zm36.76-3a14.82,14.82,0,0,1-.49,4A9.93,9.93,0,0,1,67,17.4a9.31,9.31,0,0,1-1.92,2,11.57,11.57,0,0,1-2.28,1.39,11,11,0,0,1-2.4.79,11.52,11.52,0,0,1-2.28.24L70.15,32.27H61.22l-12-10.42H45V16.08H58.09a6.68,6.68,0,0,0,2-.46,4.94,4.94,0,0,0,1.55-1,4.23,4.23,0,0,0,1-1.5A7.81,7.81,0,0,0,63,10.71V7.06a1.79,1.79,0,0,0-.12-0.74,0.9,0.9,0,0,0-.31-0.38,0.91,0.91,0,0,0-.4-0.14l-0.39,0H42.72v26.5H36.94V2.91a2.91,2.91,0,0,1,.22-1.13A3,3,0,0,1,37.77.84,2.74,2.74,0,0,1,38.7.22,3,3,0,0,1,39.85,0H61.78A7,7,0,0,1,65,.7a6.65,6.65,0,0,1,2.17,1.75,6.82,6.82,0,0,1,1.2,2.28A8,8,0,0,1,68.77,7v3.69Zm12.78,67H75.78V45.95h5.78V77.75Zm0-45.83H75.78V0.11h5.78V31.92Zm34.11,0.36H94.83a8.6,8.6,0,0,1-1.72-.19,8.84,8.84,0,0,1-1.82-.59,8.43,8.43,0,0,1-1.72-1,7,7,0,0,1-1.45-1.53,7.6,7.6,0,0,1-1-2.09,8.82,8.82,0,0,1-.38-2.68V8.11a8.6,8.6,0,0,1,.19-1.72,8.85,8.85,0,0,1,.59-1.82,8.17,8.17,0,0,1,1-1.72,7.23,7.23,0,0,1,1.54-1.45,7.64,7.64,0,0,1,2.08-1A8.71,8.71,0,0,1,94.83,0h20.84V5.78H94.83a2.35,2.35,0,0,0-1.73.6,2.41,2.41,0,0,0-.6,1.78v16a2.12,2.12,0,0,0,2.33,2.33h20.84v5.78ZM128.84,27H150v5H128.84a8,8,0,0,1-1.72-.05,6.75,6.75,0,0,1-3.53-1.49,6.94,6.94,0,0,1-1.44-1.53,7.44,7.44,0,0,1-.9-2.09,9,9,0,0,1-.25-2.67v-7c1,0.59.83,1.12,1.41,1.57A8.57,8.57,0,0,0,124.24,20a10.25,10.25,0,0,1,1.76.67v3.5A3,3,0,0,0,128.84,27ZM150,0H128.84a8.59,8.59,0,0,0-2.67.59A7.84,7.84,0,0,0,124.1,1.7a7.46,7.46,0,0,0-1.54,1.51,8.34,8.34,0,0,0-1,1.75,8.53,8.53,0,0,0-.46,1.83A8.16,8.16,0,0,0,121,8.53v2.23a9,9,0,0,0,.25,2.68,7.5,7.5,0,0,0,.95,2.09,6.87,6.87,0,0,0,1.42,1.53,8.32,8.32,0,0,0,1.71,1,9,9,0,0,0,1.81.66,8.9,8.9,0,0,0,1.71.26H150V13H128.84a3,3,0,0,1-2-.57,2.4,2.4,0,0,1-.87-1.68V8.57a2.79,2.79,0,0,1,.86-1.88,3.07,3.07,0,0,1,2-.7H150V0ZM128.84,72H150v6H128.84a8.31,8.31,0,0,1-1.72-.13,7.09,7.09,0,0,1-3.53-1.55,7,7,0,0,1-1.44-1.54,7.47,7.47,0,0,1-.9-2.09A9,9,0,0,1,121,70V63c1,0.59.83,1.12,1.41,1.57a8.57,8.57,0,0,0,1.83,1.29,10.25,10.25,0,0,1,1.76.67V70a2.13,2.13,0,0,0,.87,1.56A3,3,0,0,0,128.84,72ZM150,46H128.84a8.62,8.62,0,0,0-2.67.5,7.75,7.75,0,0,0-2.08,1.07,7.37,7.37,0,0,0-1.54,1.49,8.27,8.27,0,0,0-1,1.74,8.48,8.48,0,0,0-.46,1.83,8.11,8.11,0,0,0-.06,1.73v2.23a9,9,0,0,0,.25,2.68,7.5,7.5,0,0,0,.95,2.09,6.87,6.87,0,0,0,1.42,1.53,8.32,8.32,0,0,0,1.71,1A9.69,9.69,0,0,0,128.84,65H150V59H128.84a3,3,0,0,1-2-.65,2.6,2.6,0,0,1-.87-1.76V54.41a2.58,2.58,0,0,1,.86-1.79,3,3,0,0,1,2-.61H150V46ZM116.33,68.38a10.87,10.87,0,0,1-.4,3.08,9.5,9.5,0,0,1-1.06,2.41,7.45,7.45,0,0,1-1.55,1.78,9.4,9.4,0,0,1-1.84,1.2,8.77,8.77,0,0,1-1.93.69,8.39,8.39,0,0,1-1.85.22H87V72h20.73a3,3,0,0,0,2.41-1,3.83,3.83,0,0,0,.86-2.62,4.52,4.52,0,0,0-.23-1.47,3.44,3.44,0,0,0-.65-1.16,2.87,2.87,0,0,0-1-.76,3.34,3.34,0,0,0-1.35-.27H95.34a9,9,0,0,1-2.81-.5,8.25,8.25,0,0,1-2.8-1.61,8.71,8.71,0,0,1-2.15-2.91,10.17,10.17,0,0,1-.86-4.4,10.1,10.1,0,0,1,.86-4.39A8.86,8.86,0,0,1,89.73,48a8.17,8.17,0,0,1,2.8-1.62,9,9,0,0,1,2.81-.5h18.29v5.78H95.34a3,3,0,0,0-2.39,1,3.92,3.92,0,0,0-.86,2.64A3.82,3.82,0,0,0,93,57.95a3,3,0,0,0,2.39,1h12.4a8.95,8.95,0,0,1,3.77,1,9.27,9.27,0,0,1,1.83,1.23,8.14,8.14,0,0,1,1.54,1.79,9.09,9.09,0,0,1,1.06,2.4A11,11,0,0,1,116.33,68.38ZM33.9,77.07a8.05,8.05,0,0,1-3.79.93H8.29a8,8,0,0,1-6.34-3.05A7.89,7.89,0,0,1,.51,72.3,9.69,9.69,0,0,1,0,69.67V46H6V69.62a2.4,2.4,0,0,0,.58,1.77A2.29,2.29,0,0,0,8.29,72H30.11a3.1,3.1,0,0,0,2-.61A2.57,2.57,0,0,0,33,69.62V46h5V69.67a8.89,8.89,0,0,1-.31,2.62,7.67,7.67,0,0,1-1.33,2.66A7.83,7.83,0,0,1,33.9,77.07ZM65,46V69.62a2.6,2.6,0,0,1-.91,1.77A3.2,3.2,0,0,1,62,72H40.74a6.79,6.79,0,0,0-.28,1.09,11,11,0,0,1-1.88,3.69,2.41,2.41,0,0,0-1,1.22H62a8.05,8.05,0,0,0,3.79-.93A7.94,7.94,0,0,0,68.34,75a7.65,7.65,0,0,0,1.31-2.66A9.2,9.2,0,0,0,70,69.67V46H65Z" transform="translate(0)" style="fill:#60379f"/></symbol></svg>